<svg width="14" height="8" viewBox="0 0 14 8" fill="none" xmlns="http://www.w3.org/2000/svg">
    <path d="M12.0439 0.319205C12.5027 -0.117352 13.2335 -0.104521 13.6763 0.347864C14.119 0.800249 14.106 1.52088 13.6472 1.95744L7.63219 7.68079C7.17339 8.11735 6.44253 8.10452 5.99978 7.65214C5.55703 7.19975 5.57004 6.47912 6.02885 6.04256L12.0439 0.319205Z" fill="#D2D4E3"/>
    <path d="M0.328159 1.94059C-0.117111 1.49062 -0.108121 0.769927 0.348238 0.330886C0.804598 -0.108155 1.53551 -0.0992908 1.98078 0.350684L7.63693 6.06659C8.0822 6.51656 8.07321 7.23725 7.61685 7.67629C7.16049 8.11533 6.42957 8.10647 5.9843 7.65649L0.328159 1.94059Z" fill="#D2D4E3"/>
</svg>
