<svg width="14" height="14" viewBox="0 0 14 14" fill="none" xmlns="http://www.w3.org/2000/svg">
    <path fill-rule="evenodd" clip-rule="evenodd" d="M2.11422 1.06376C1.82396 0.773514 1.35334 0.773597 1.06318 1.06395C0.773139 1.35418 0.773222 1.82455 1.06336 2.11468L5.94888 6.99992L1.06334 11.8855C0.773238 12.1756 0.773245 12.6459 1.06336 12.936C1.35345 13.2261 1.82377 13.2261 2.11386 12.936L6.9996 8.05057L11.885 12.9357C12.1752 13.2259 12.6459 13.2258 12.936 12.9355C13.2261 12.6453 13.226 12.1749 12.9358 11.8848L8.05052 6.99972L12.9358 2.11467C13.226 1.82455 13.2261 1.35418 12.936 1.06396C12.6459 0.773604 12.1752 0.773528 11.885 1.06379L6.99977 5.94903L2.11422 1.06376Z" fill="#001845"/>
</svg>
