<svg width="18" height="17" viewBox="0 0 18 17" fill="none" xmlns="http://www.w3.org/2000/svg">
    <path d="M4.08718 5.53388H0.227822V17H4.08718V5.53388Z" fill="#D3D2DD"/>
    <path d="M2.18313 0C0.86273 0 0 0.857418 0 1.98122C0 3.08142 0.836493 3.96248 2.13205 3.96248H2.15698C3.50267 3.96248 4.34029 3.08142 4.34029 1.98122C4.31531 0.857418 3.50276 0 2.18313 0Z" fill="#D3D2DD"/>
    <path d="M13.5574 5.25608C11.5103 5.25608 10.5933 6.36805 10.0799 7.14911V5.5257H6.2215C6.27267 6.60123 6.2215 16.9918 6.2215 16.9918H10.0798V10.5883C10.0798 10.2456 10.1047 9.90289 10.207 9.65794C10.4855 8.97342 11.1208 8.26438 12.1868 8.26438C13.5824 8.26438 14.1415 9.31621 14.1415 10.8569V16.9918H18V10.4165C18 6.89446 16.0962 5.25608 13.5574 5.25608Z" fill="#D3D2DD"/>
</svg>
