<svg width="57" height="39" viewBox="0 0 57 39" fill="none" xmlns="http://www.w3.org/2000/svg">
    <path d="M7.92969 8.26953C9.42969 8.31641 10.1914 9.59375 10.2148 12.1016C10.2148 13.2031 9.88672 13.8828 9.23047 14.1406C8.76172 14.3047 8.05859 14.3633 7.12109 14.3164L4.87109 14.2109C5.03516 10.3203 6.05469 8.33984 7.92969 8.26953ZM14.5039 19.3789L13.6602 19.0977C13.0039 20.5273 11.9727 21.5 10.5664 22.0156C10.0039 22.2266 9.42969 22.332 8.84375 22.332C6.96875 22.332 5.76172 21.1367 5.22266 18.7461C5.01172 17.7617 4.89453 16.5898 4.87109 15.2305L8.10547 15.3359C11.8789 15.4531 14.0703 14.8555 14.6797 13.543C14.8203 13.2148 14.8906 12.8516 14.8906 12.4531C14.8906 10.4609 13.8711 9.00781 11.832 8.09375C10.6836 7.60156 9.38281 7.35547 7.92969 7.35547C5.28125 7.35547 3.21875 8.25781 1.74219 10.0625C0.617188 11.4688 0.0546875 13.2148 0.0546875 15.3008C0.0546875 18.6992 1.33203 21.0664 3.88672 22.4023C5.10547 23.0352 6.48828 23.3516 8.03516 23.3516C10.7773 23.3516 12.7461 22.3906 13.9414 20.4688C14.1758 20.1172 14.3633 19.7539 14.5039 19.3789ZM23.9258 3.27734C23.9258 2.24609 23.4688 1.48438 22.5547 0.992188C22.1562 0.757813 21.7344 0.640625 21.2891 0.640625C20.2812 0.640625 19.5195 1.09766 19.0039 2.01172C18.793 2.41016 18.6875 2.83203 18.6875 3.27734C18.6875 4.30859 19.1445 5.05859 20.0586 5.52734C20.457 5.73828 20.8672 5.84375 21.2891 5.84375C22.3203 5.84375 23.082 5.41016 23.5742 4.54297C23.8086 4.14453 23.9258 3.72266 23.9258 3.27734ZM17.0352 7.88281V8.79688H19.25V20.2578C19.25 21.3594 19.2969 22.918 19.3906 24.9336C19.4375 26.082 19.4609 26.8438 19.4609 27.2188C19.4375 28.3203 19.1211 28.8828 18.5117 28.9062C18.043 28.9062 17.7148 28.543 17.5273 27.8164C17.3164 26.8555 17.1289 26.2578 16.9648 26.0234C16.6367 25.6016 16.1562 25.3906 15.5234 25.3906C14.6328 25.3906 14.082 25.7656 13.8711 26.5156C13.8242 26.6797 13.8008 26.8438 13.8008 27.0078C13.8008 28.0391 14.375 28.8242 15.5234 29.3633C16.2266 29.6914 17.0703 29.8555 18.0547 29.8555C21.5469 29.8555 23.4219 27.5117 23.6797 22.8242C23.7031 22.4727 23.7148 22.1094 23.7148 21.7344V7.88281H17.0352ZM26.8789 15.4062C26.8789 18.8281 28.1797 21.1836 30.7812 22.4727C32 23.0586 33.3945 23.3516 34.9648 23.3516C37.4023 23.3516 39.2773 22.6133 40.5898 21.1367C41.0352 20.6211 41.375 20.0586 41.6094 19.4492L40.6953 19.2031C40.0391 20.6094 38.9258 21.5586 37.3555 22.0508C36.7461 22.2383 36.1367 22.332 35.5273 22.332C33.9102 22.332 32.832 21.6055 32.293 20.1523C31.8945 19.0742 31.6953 17.5508 31.6953 15.582C31.6953 11.6445 32.3164 9.30078 33.5586 8.55078C33.9336 8.33984 34.3789 8.23438 34.8945 8.23438C35.9258 8.23438 36.5586 8.71484 36.793 9.67578C36.8398 9.86328 36.8984 10.1797 36.9688 10.625C37.1094 11.7031 37.3906 12.3945 37.8125 12.6992C38.1406 12.9336 38.5859 13.0508 39.1484 13.0508C40.3438 13.0508 41.082 12.6055 41.3633 11.7148C41.4102 11.5273 41.4336 11.3398 41.4336 11.1523C41.4336 10.1211 40.8125 9.21875 39.5703 8.44531C38.3516 7.71875 36.8281 7.35547 35 7.35547C32.5156 7.35547 30.5 8.16406 28.9531 9.78125C27.5703 11.2344 26.8789 13.1094 26.8789 15.4062Z" fill="#1F2971"/>
    <path d="M31.2422 36.7305C31.2422 36.1836 30.9948 35.7734 30.5 35.5C30.2917 35.3958 30.0768 35.3438 29.8555 35.3438C29.3086 35.3438 28.9049 35.5911 28.6445 36.0859C28.5404 36.2943 28.4883 36.5091 28.4883 36.7305C28.4883 37.2904 28.7357 37.694 29.2305 37.9414C29.4258 38.0456 29.6341 38.0977 29.8555 38.0977C30.4154 38.0977 30.8255 37.8633 31.0859 37.3945C31.1901 37.1862 31.2422 36.9648 31.2422 36.7305ZM39.3086 38.1953C40.2591 38.1953 40.8516 37.8503 41.0859 37.1602C41.1641 36.8997 41.2227 36.5677 41.2617 36.1641L40.7539 36.1445C40.6758 37.043 40.4479 37.4987 40.0703 37.5117C39.7839 37.4857 39.6406 37.1602 39.6406 36.5352V32.4531C39.6406 30.8255 38.8854 29.8229 37.375 29.4453C36.9844 29.3542 36.5612 29.3086 36.1055 29.3086C34.3346 29.3086 33.2214 29.6927 32.7656 30.4609C32.6484 30.6562 32.5898 30.8646 32.5898 31.0859C32.5898 31.5938 32.8307 31.9128 33.3125 32.043C33.4297 32.082 33.5534 32.1016 33.6836 32.1016C34.2435 32.1016 34.6211 31.8281 34.8164 31.2812C34.8424 31.2031 34.8815 31.0729 34.9336 30.8906C35.0768 30.3698 35.2591 30.0443 35.4805 29.9141C35.6237 29.849 35.7865 29.8164 35.9688 29.8164C36.5807 29.8164 36.9518 30.1875 37.082 30.9297C37.1341 31.2031 37.1602 31.5286 37.1602 31.9062V33.1758C33.8138 33.2409 32.1341 34.1263 32.1211 35.832C32.1211 36.9909 32.6289 37.7331 33.6445 38.0586C33.944 38.1497 34.276 38.1953 34.6406 38.1953C35.7474 38.1953 36.5612 37.7786 37.082 36.9453C37.1862 36.776 37.2708 36.6003 37.3359 36.418C37.6094 37.5378 38.2669 38.1302 39.3086 38.1953ZM35.6562 37.3555C35.0052 37.3294 34.6732 36.75 34.6602 35.6172C34.6602 34.7578 35.0117 34.1979 35.7148 33.9375C36.0924 33.8203 36.5742 33.7487 37.1602 33.7227V35.6172C36.9128 36.5286 36.5156 37.0885 35.9688 37.2969C35.8516 37.3359 35.7474 37.3555 35.6562 37.3555ZM45.7148 37.4922H45.3633L45.3828 32.4531C45.4609 31.4245 45.7995 30.7539 46.3984 30.4414C46.5677 30.3503 46.737 30.3047 46.9062 30.3047C47.388 30.3047 47.7331 30.6042 47.9414 31.2031C48.0326 31.4896 48.0781 31.8086 48.0781 32.1602V36.4766C48.0781 37.0104 47.9544 37.3294 47.707 37.4336C47.5898 37.4727 47.4271 37.4922 47.2188 37.4922V38H51.3594C51.3594 37.7005 51.2747 37.5378 51.1055 37.5117C51.0273 37.4987 50.9492 37.4922 50.8711 37.4922H50.5391V32.4922V32.3555C50.6302 31.2747 50.9818 30.6042 51.5938 30.3438C51.724 30.2917 51.8542 30.2656 51.9844 30.2656C52.5443 30.2656 52.9284 30.5977 53.1367 31.2617C53.2148 31.5352 53.2539 31.8346 53.2539 32.1602V36.4766C53.2539 37.0104 53.1302 37.3294 52.8828 37.4336C52.7656 37.4727 52.6029 37.4922 52.3945 37.4922V38H56.8477C56.8477 37.7005 56.763 37.5378 56.5938 37.5117C56.5156 37.4987 56.4375 37.4922 56.3594 37.4922H55.7148V32.3945C55.7148 31.1185 55.2917 30.2135 54.4453 29.6797C54.0547 29.4323 53.6315 29.3086 53.1758 29.3086C51.9128 29.3216 50.9688 29.9271 50.3438 31.125C50.0312 30.2005 49.4779 29.6211 48.6836 29.3867C48.4753 29.3346 48.2669 29.3086 48.0586 29.3086C46.8086 29.3216 45.8971 29.8945 45.3242 31.0273L45.2266 29.6016H41.75V30.1094H42.8828V36.4766C42.8828 37.0755 42.6029 37.4076 42.043 37.4727C41.9518 37.4857 41.8542 37.4922 41.75 37.4922V38H46.1836C46.1836 37.7005 46.099 37.5378 45.9297 37.5117C45.8646 37.4987 45.793 37.4922 45.7148 37.4922Z" fill="#767CA3"/>
</svg>
