<svg width="50" height="44" viewBox="0 0 50 44" fill="none" xmlns="http://www.w3.org/2000/svg">
    <path d="M18.409 0.138438C15.6051 0.138438 13.1879 2.11529 12.6354 4.85993L12.1565 7.19998H6.1527C2.89756 7.19998 0.259375 9.83427 0.259375 13.0846V37.8C0.259375 41.0504 2.89756 43.6846 6.1527 43.6846H43.8701C47.1251 43.6846 49.7634 41.0504 49.7634 37.8V13.0846C49.7634 9.83427 47.1251 7.19998 43.8701 7.19998H37.8662L37.3874 4.85993C36.8349 2.11071 34.4177 0.138438 31.6137 0.138438H18.409ZM18.409 2.49229H31.6137C33.2897 2.49229 34.7491 3.68301 35.0807 5.32426L35.5503 7.66431C35.776 8.76307 36.7428 9.55383 37.8662 9.55383H43.8701C45.8177 9.55383 47.4061 11.1399 47.4061 13.0846V37.8C47.4061 39.7447 45.8177 41.3308 43.8701 41.3308H6.1527C4.20515 41.3308 2.6167 39.7447 2.6167 37.8V13.0846C2.6167 11.1399 4.20515 9.55383 6.1527 9.55383H12.1565C13.28 9.55383 14.2468 8.76307 14.4724 7.66431L14.9421 5.32426C15.2736 3.68301 16.733 2.49229 18.409 2.49229ZM25.0114 13.0846C18.501 13.0846 13.2247 18.3532 13.2247 24.8538C13.2247 31.3544 18.501 36.6231 25.0114 36.6231C31.5217 36.6231 36.7981 31.3544 36.7981 24.8538C36.7981 18.3532 31.5217 13.0846 25.0114 13.0846ZM25.0114 15.4384C30.2095 15.4384 34.4408 19.6634 34.4408 24.8538C34.4408 30.0443 30.2095 34.2692 25.0114 34.2692C19.8133 34.2692 15.582 30.0443 15.582 24.8538C15.582 19.6634 19.8133 15.4384 25.0114 15.4384Z" fill="white"/>
</svg>
