<svg width="25" height="28" viewBox="0 0 25 28" fill="none" xmlns="http://www.w3.org/2000/svg">
    <path d="M20.8333 0C19.7283 0 18.6685 0.442499 17.8871 1.23015C17.1057 2.0178 16.6667 3.08609 16.6667 4.2C16.6675 4.46341 16.6929 4.72616 16.7426 4.98477L6.86035 10.7953C6.10765 10.1526 5.15314 9.79989 4.16667 9.8C3.0616 9.8 2.00179 10.2425 1.22039 11.0302C0.438987 11.8178 0 12.8861 0 14C0 15.1139 0.438987 16.1822 1.22039 16.9698C2.00179 17.7575 3.0616 18.2 4.16667 18.2C5.15161 18.1981 6.10403 17.8445 6.85493 17.202L16.7426 23.0152C16.6929 23.2738 16.6675 23.5366 16.6667 23.8C16.6667 24.9139 17.1057 25.9822 17.8871 26.7698C18.6685 27.5575 19.7283 28 20.8333 28C21.9384 28 22.9982 27.5575 23.7796 26.7698C24.561 25.9822 25 24.9139 25 23.8C25 22.6861 24.561 21.6178 23.7796 20.8302C22.9982 20.0425 21.9384 19.6 20.8333 19.6C19.8475 19.6013 18.894 19.9549 18.1424 20.598L8.25738 14.7848C8.30705 14.5262 8.33248 14.2634 8.33333 14C8.33248 13.7366 8.30705 13.4738 8.25738 13.2152L18.1396 7.40469C18.8923 8.04742 19.8469 8.40011 20.8333 8.4C21.9384 8.4 22.9982 7.9575 23.7796 7.16985C24.561 6.3822 25 5.31391 25 4.2C25 3.08609 24.561 2.0178 23.7796 1.23015C22.9982 0.442499 21.9384 0 20.8333 0Z" fill="#767CA3"/>
</svg>
