<svg width="18" height="18" viewBox="0 0 18 18" fill="none" xmlns="http://www.w3.org/2000/svg">
    <path d="M14.5379 9.00436C14.5379 8.62336 14.2329 8.31471 13.8571 8.31471H9.69094V4.15472V4.1546C9.69094 3.77231 9.38075 3.46225 8.99872 3.46225C8.61643 3.46225 8.30624 3.77231 8.30624 4.1546V9.00167C8.30624 9.38408 8.61643 9.69414 8.99872 9.69414H13.8575C14.2329 9.69414 14.5379 9.38536 14.5379 9.00436ZM16.617 9C16.617 13.2074 13.2067 16.6183 9.00013 16.6183C4.79332 16.6183 1.38328 13.2074 1.38328 9C1.38328 4.79255 4.79332 1.38174 9.00013 1.38174C13.2067 1.38174 16.617 4.79255 16.617 9ZM18 9C18 4.02939 13.9706 0 9.00013 0C4.02939 0 0 4.02939 0 9C0 13.9706 4.02939 18 9.00013 18C13.9706 18 18 13.9706 18 9Z" fill="#D3D2DD"/>
</svg>
