<svg width="21" height="21" viewBox="0 0 21 21" fill="none" xmlns="http://www.w3.org/2000/svg">
    <path fill-rule="evenodd" clip-rule="evenodd" d="M2.56135 0.854139C2.08967 0.382487 1.32491 0.382622 0.853398 0.85444C0.382083 1.32606 0.382218 2.09043 0.853699 2.56188L8.79267 10.5004L0.85366 18.4394C0.382245 18.9109 0.382257 19.6752 0.853687 20.1466C1.32509 20.618 2.08935 20.618 2.56075 20.1466L10.5001 12.2077L18.4388 20.146C18.9105 20.6176 19.6753 20.6175 20.1468 20.1457C20.6181 19.6741 20.6179 18.9097 20.1465 18.4382L12.2078 10.5001L20.1465 2.56187C20.618 2.09042 20.6181 1.32607 20.1468 0.854455C19.6753 0.382633 18.9105 0.38251 18.4388 0.85418L10.5004 8.7927L2.56135 0.854139Z" fill="#D3D2DD"/>
</svg>
