<svg width="75" height="50" viewBox="0 0 75 50" fill="none" xmlns="http://www.w3.org/2000/svg">
    <path d="M10.9062 10.3594C12.9062 10.4219 13.9219 12.125 13.9531 15.4688C13.9531 16.9375 13.5156 17.8438 12.6406 18.1875C12.0156 18.4062 11.0781 18.4844 9.82812 18.4219L6.82812 18.2812C7.04688 13.0938 8.40625 10.4531 10.9062 10.3594ZM19.6719 25.1719L18.5469 24.7969C17.6719 26.7031 16.2969 28 14.4219 28.6875C13.6719 28.9688 12.9062 29.1094 12.125 29.1094C9.625 29.1094 8.01562 27.5156 7.29688 24.3281C7.01562 23.0156 6.85938 21.4531 6.82812 19.6406L11.1406 19.7812C16.1719 19.9375 19.0938 19.1406 19.9062 17.3906C20.0938 16.9531 20.1875 16.4688 20.1875 15.9375C20.1875 13.2812 18.8281 11.3438 16.1094 10.125C14.5781 9.46875 12.8438 9.14062 10.9062 9.14062C7.375 9.14062 4.625 10.3438 2.65625 12.75C1.15625 14.625 0.40625 16.9531 0.40625 19.7344C0.40625 24.2656 2.10938 27.4219 5.51562 29.2031C7.14062 30.0469 8.98438 30.4688 11.0469 30.4688C14.7031 30.4688 17.3281 29.1875 18.9219 26.625C19.2344 26.1562 19.4844 25.6719 19.6719 25.1719ZM32.2344 3.70312C32.2344 2.32812 31.625 1.3125 30.4062 0.65625C29.875 0.34375 29.3125 0.1875 28.7188 0.1875C27.375 0.1875 26.3594 0.796875 25.6719 2.01562C25.3906 2.54688 25.25 3.10938 25.25 3.70312C25.25 5.07813 25.8594 6.07813 27.0781 6.70312C27.6094 6.98438 28.1562 7.125 28.7188 7.125C30.0938 7.125 31.1094 6.54688 31.7656 5.39062C32.0781 4.85937 32.2344 4.29687 32.2344 3.70312ZM23.0469 9.84375V11.0625H26V26.3438C26 27.8125 26.0625 29.8906 26.1875 32.5781C26.25 34.1094 26.2812 35.125 26.2812 35.625C26.25 37.0938 25.8281 37.8438 25.0156 37.875C24.3906 37.875 23.9531 37.3906 23.7031 36.4219C23.4219 35.1406 23.1719 34.3438 22.9531 34.0312C22.5156 33.4688 21.875 33.1875 21.0312 33.1875C19.8438 33.1875 19.1094 33.6875 18.8281 34.6875C18.7656 34.9062 18.7344 35.125 18.7344 35.3438C18.7344 36.7188 19.5 37.7656 21.0312 38.4844C21.9688 38.9219 23.0938 39.1406 24.4062 39.1406C29.0625 39.1406 31.5625 36.0156 31.9062 29.7656C31.9375 29.2969 31.9531 28.8125 31.9531 28.3125V9.84375H23.0469ZM36.1719 19.875C36.1719 24.4375 37.9062 27.5781 41.375 29.2969C43 30.0781 44.8594 30.4688 46.9531 30.4688C50.2031 30.4688 52.7031 29.4844 54.4531 27.5156C55.0469 26.8281 55.5 26.0781 55.8125 25.2656L54.5938 24.9375C53.7188 26.8125 52.2344 28.0781 50.1406 28.7344C49.3281 28.9844 48.5156 29.1094 47.7031 29.1094C45.5469 29.1094 44.1094 28.1406 43.3906 26.2031C42.8594 24.7656 42.5938 22.7344 42.5938 20.1094C42.5938 14.8594 43.4219 11.7344 45.0781 10.7344C45.5781 10.4531 46.1719 10.3125 46.8594 10.3125C48.2344 10.3125 49.0781 10.9531 49.3906 12.2344C49.4531 12.4844 49.5312 12.9062 49.625 13.5C49.8125 14.9375 50.1875 15.8594 50.75 16.2656C51.1875 16.5781 51.7812 16.7344 52.5312 16.7344C54.125 16.7344 55.1094 16.1406 55.4844 14.9531C55.5469 14.7031 55.5781 14.4531 55.5781 14.2031C55.5781 12.8281 54.75 11.625 53.0938 10.5938C51.4688 9.625 49.4375 9.14062 47 9.14062C43.6875 9.14062 41 10.2188 38.9375 12.375C37.0938 14.3125 36.1719 16.8125 36.1719 19.875Z" fill="white"/>
    <path d="M41.2148 47.3496C41.2148 46.6387 40.8932 46.1055 40.25 45.75C39.9792 45.6146 39.6999 45.5469 39.4121 45.5469C38.7012 45.5469 38.1764 45.8685 37.8379 46.5117C37.7025 46.7826 37.6348 47.0618 37.6348 47.3496C37.6348 48.0775 37.9564 48.6022 38.5996 48.9238C38.8535 49.0592 39.1243 49.127 39.4121 49.127C40.14 49.127 40.6732 48.8223 41.0117 48.2129C41.1471 47.9421 41.2148 47.6543 41.2148 47.3496ZM51.7012 49.2539C52.9368 49.2539 53.707 48.8053 54.0117 47.9082C54.1133 47.5697 54.1895 47.138 54.2402 46.6133L53.5801 46.5879C53.4785 47.7559 53.1823 48.3483 52.6914 48.3652C52.319 48.3314 52.1328 47.9082 52.1328 47.0957V41.7891C52.1328 39.6732 51.151 38.3698 49.1875 37.8789C48.6797 37.7604 48.1296 37.7012 47.5371 37.7012C45.235 37.7012 43.7878 38.2005 43.1953 39.1992C43.043 39.4531 42.9668 39.724 42.9668 40.0117C42.9668 40.6719 43.2799 41.0866 43.9062 41.2559C44.0586 41.3066 44.2194 41.332 44.3887 41.332C45.1165 41.332 45.6074 40.9766 45.8613 40.2656C45.8952 40.1641 45.946 39.9948 46.0137 39.7578C46.1999 39.0807 46.4368 38.6576 46.7246 38.4883C46.9108 38.4036 47.1224 38.3613 47.3594 38.3613C48.1549 38.3613 48.6374 38.8438 48.8066 39.8086C48.8743 40.1641 48.9082 40.5872 48.9082 41.0781V42.7285C44.5579 42.8132 42.3743 43.9642 42.3574 46.1816C42.3574 47.6882 43.0176 48.653 44.3379 49.0762C44.7272 49.1947 45.1589 49.2539 45.6328 49.2539C47.0716 49.2539 48.1296 48.7122 48.8066 47.6289C48.9421 47.4089 49.0521 47.1803 49.1367 46.9434C49.4922 48.3991 50.347 49.1693 51.7012 49.2539ZM46.9531 48.1621C46.1068 48.1283 45.6751 47.375 45.6582 45.9023C45.6582 44.7852 46.1152 44.0573 47.0293 43.7188C47.5202 43.5664 48.1465 43.4733 48.9082 43.4395V45.9023C48.5866 47.0872 48.0703 47.8151 47.3594 48.0859C47.207 48.1367 47.0716 48.1621 46.9531 48.1621ZM60.0293 48.3398H59.5723L59.5977 41.7891C59.6992 40.4518 60.1393 39.5801 60.918 39.1738C61.138 39.0553 61.3581 38.9961 61.5781 38.9961C62.2044 38.9961 62.653 39.3854 62.9238 40.1641C63.0423 40.5365 63.1016 40.9512 63.1016 41.4082V47.0195C63.1016 47.7135 62.9408 48.1283 62.6191 48.2637C62.4668 48.3145 62.2552 48.3398 61.9844 48.3398V49H67.3672C67.3672 48.6107 67.2572 48.3991 67.0371 48.3652C66.9355 48.3483 66.834 48.3398 66.7324 48.3398H66.3008V41.8398V41.6621C66.4193 40.2572 66.8763 39.3854 67.6719 39.0469C67.8411 38.9792 68.0104 38.9453 68.1797 38.9453C68.9076 38.9453 69.4069 39.377 69.6777 40.2402C69.7793 40.5957 69.8301 40.985 69.8301 41.4082V47.0195C69.8301 47.7135 69.6693 48.1283 69.3477 48.2637C69.1953 48.3145 68.9837 48.3398 68.7129 48.3398V49H74.502C74.502 48.6107 74.3919 48.3991 74.1719 48.3652C74.0703 48.3483 73.9688 48.3398 73.8672 48.3398H73.0293V41.7129C73.0293 40.054 72.4792 38.8776 71.3789 38.1836C70.8711 37.862 70.321 37.7012 69.7285 37.7012C68.0866 37.7181 66.8594 38.5052 66.0469 40.0625C65.6406 38.8607 64.9212 38.1074 63.8887 37.8027C63.6178 37.735 63.347 37.7012 63.0762 37.7012C61.4512 37.7181 60.2663 38.4629 59.5215 39.9355L59.3945 38.082H54.875V38.7422H56.3477V47.0195C56.3477 47.7982 55.9837 48.2298 55.2559 48.3145C55.1374 48.3314 55.0104 48.3398 54.875 48.3398V49H60.6387C60.6387 48.6107 60.5286 48.3991 60.3086 48.3652C60.224 48.3483 60.1309 48.3398 60.0293 48.3398Z" fill="#767CA3"/>
</svg>
