<svg width="28" height="19" viewBox="0 0 28 19" fill="none" xmlns="http://www.w3.org/2000/svg">
    <path d="M0 1.1875C0 0.531662 0.531662 0 1.1875 0H26.8125C27.4683 0 28 0.531662 28 1.1875C28 1.84334 27.4683 2.375 26.8125 2.375H1.1875C0.531662 2.375 0 1.84334 0 1.1875Z" fill="#F9F9FE"/>
    <path d="M0 9.5C0 8.84416 0.531662 8.3125 1.1875 8.3125H12.2038C12.8596 8.3125 13.3913 8.84416 13.3913 9.5C13.3913 10.1558 12.8596 10.6875 12.2038 10.6875H1.1875C0.531662 10.6875 0 10.1558 0 9.5Z" fill="#F9F9FE"/>
    <path d="M0 17.8125C0 17.1567 0.531662 16.625 1.1875 16.625H20.7255C21.3814 16.625 21.913 17.1567 21.913 17.8125C21.913 18.4683 21.3814 19 20.7255 19H1.1875C0.531663 19 0 18.4683 0 17.8125Z" fill="#F9F9FE"/>
</svg>
