<svg width="22" height="19" viewBox="0 0 22 19" fill="none" xmlns="http://www.w3.org/2000/svg">
    <path d="M8.54407 0.880005C7.37376 0.880005 6.36487 1.68626 6.13427 2.80563L5.93441 3.76001H3.42852C2.06988 3.76001 0.96875 4.83438 0.96875 6.16001V16.24C0.96875 17.5656 2.06988 18.64 3.42852 18.64H19.1711C20.5297 18.64 21.6308 17.5656 21.6308 16.24V6.16001C21.6308 4.83438 20.5297 3.76001 19.1711 3.76001H16.6652L16.4653 2.80563C16.2347 1.68438 15.2258 0.880005 14.0555 0.880005H8.54407ZM8.54407 1.84H14.0555C14.755 1.84 15.3642 2.32563 15.5025 2.99501L15.6985 3.94938C15.7927 4.39751 16.1963 4.72001 16.6652 4.72001H19.1711C19.9839 4.72001 20.6469 5.36688 20.6469 6.16001V16.24C20.6469 17.0331 19.9839 17.68 19.1711 17.68H3.42852C2.61564 17.68 1.95266 17.0331 1.95266 16.24V6.16001C1.95266 5.36688 2.61564 4.72001 3.42852 4.72001H5.93441C6.40331 4.72001 6.80686 4.39751 6.90102 3.94938L7.09704 2.99501C7.2354 2.32563 7.84458 1.84 8.54407 1.84ZM11.2998 6.16001C8.58251 6.16001 6.38025 8.30876 6.38025 10.96C6.38025 13.6113 8.58251 15.76 11.2998 15.76C14.0171 15.76 16.2193 13.6113 16.2193 10.96C16.2193 8.30876 14.0171 6.16001 11.2998 6.16001ZM11.2998 7.12001C13.4694 7.12001 15.2354 8.84313 15.2354 10.96C15.2354 13.0769 13.4694 14.8 11.2998 14.8C9.13019 14.8 7.36415 13.0769 7.36415 10.96C7.36415 8.84313 9.13019 7.12001 11.2998 7.12001Z" fill="#D3D2DD"/>
</svg>
