<svg width="30" height="26" viewBox="0 0 30 26" fill="none" xmlns="http://www.w3.org/2000/svg">
    <path d="M11.1975 0.0799866C9.57984 0.0799866 8.18531 1.22217 7.86656 2.80796L7.59031 4.15999H4.12656C2.24859 4.15999 0.726562 5.68202 0.726562 7.55999V21.84C0.726562 23.718 2.24859 25.24 4.12656 25.24H25.8866C27.7645 25.24 29.2866 23.718 29.2866 21.84V7.55999C29.2866 5.68202 27.7645 4.15999 25.8866 4.15999H22.4228L22.1466 2.80796C21.8278 1.21952 20.4333 0.0799866 18.8156 0.0799866H11.1975ZM11.1975 1.43999H18.8156C19.7825 1.43999 20.6245 2.12796 20.8158 3.07624L21.0867 4.42827C21.2169 5.06311 21.7747 5.51999 22.4228 5.51999H25.8866C27.0102 5.51999 27.9266 6.43639 27.9266 7.55999V21.84C27.9266 22.9636 27.0102 23.88 25.8866 23.88H4.12656C3.00297 23.88 2.08656 22.9636 2.08656 21.84V7.55999C2.08656 6.43639 3.00297 5.51999 4.12656 5.51999H7.59031C8.23844 5.51999 8.79625 5.06311 8.92641 4.42827L9.19734 3.07624C9.38859 2.12796 10.2306 1.43999 11.1975 1.43999ZM15.0066 7.55999C11.2506 7.55999 8.20656 10.6041 8.20656 14.36C8.20656 18.1159 11.2506 21.16 15.0066 21.16C18.7625 21.16 21.8066 18.1159 21.8066 14.36C21.8066 10.6041 18.7625 7.55999 15.0066 7.55999ZM15.0066 8.91999C18.0055 8.91999 20.4466 11.3611 20.4466 14.36C20.4466 17.3589 18.0055 19.8 15.0066 19.8C12.0077 19.8 9.56656 17.3589 9.56656 14.36C9.56656 11.3611 12.0077 8.91999 15.0066 8.91999Z" fill="#767CA3"/>
</svg>
