<svg width="18" height="14" viewBox="0 0 18 14" fill="none" xmlns="http://www.w3.org/2000/svg">
    <path d="M5.66065 14C12.4531 14 16.1683 8.61333 16.1683 3.942C16.1683 3.78902 16.1683 3.63671 16.1575 3.48508C16.8803 2.98464 17.5042 2.36508 18 1.6553C17.326 1.94117 16.611 2.12861 15.8789 2.21146C16.6496 1.76981 17.2269 1.07463 17.5025 0.256224C16.7776 0.667953 15.9844 0.958166 15.1574 1.11428C14.4592 0.403518 13.4839 0 12.4647 0C10.4368 0 8.76822 1.59725 8.76822 3.53828C8.76822 3.80756 8.80035 4.076 8.86391 4.33828C5.89609 4.1959 3.12711 2.85219 1.25279 0.644936C0.278121 2.251 0.782437 4.33236 2.39614 5.36379C1.80851 5.34713 1.23349 5.19536 0.72 4.92133V4.96612C0.720492 6.64245 1.96618 8.09947 3.68279 8.43138C3.13914 8.57329 2.56859 8.59402 2.0153 8.49202C2.49789 9.92844 3.88951 10.9186 5.46553 10.9469C4.15807 11.9305 2.54204 12.4647 0.879117 12.4631C0.585281 12.4626 0.291727 12.4456 0 12.4121C1.6887 13.4494 3.65414 13.9998 5.66065 13.9972" fill="#D3D2DD"/>
</svg>
