<svg width="22" height="16" viewBox="0 0 22 16" fill="none" xmlns="http://www.w3.org/2000/svg">
    <path fill-rule="evenodd" clip-rule="evenodd" d="M21.78 3.45126C21.78 3.45126 21.5648 1.88366 20.9055 1.19348C20.0688 0.28712 19.1311 0.282884 18.7014 0.230296C15.6227 6.31113e-08 11.0048 0 11.0048 0H10.9952C10.9952 0 6.37725 6.31113e-08 3.29862 0.230296C2.86825 0.282884 1.93119 0.28712 1.09381 1.19348C0.4345 1.88384 0.22 3.45126 0.22 3.45126C0.22 3.45126 0 5.29257 0 7.13299V8.85907C0 10.7002 0.22 12.5408 0.22 12.5408C0.22 12.5408 0.4345 14.1084 1.09381 14.7986C1.93119 15.7049 3.0305 15.6765 3.52 15.7711C5.28 15.946 11 16 11 16C11 16 15.6227 15.9929 18.7014 15.7626C19.1311 15.7094 20.0688 15.7051 20.9055 14.7988C21.5648 14.1084 21.78 12.541 21.78 12.541C21.78 12.541 22 10.7004 22 8.85907V7.13299C22 5.29257 21.78 3.45126 21.78 3.45126ZM8.7285 10.9506L8.72781 4.55897L14.6719 7.76582L8.7285 10.9506Z" fill="#D3D2DD"/>
</svg>
